<svg xmlns="http://www.w3.org/2000/svg" viewBox="0 0 22.8 21.4"><defs><style>.cls-1{fill:#fff;}</style></defs><g id="Camada_2" data-name="Camada 2"><g id="Camada_1-2" data-name="Camada 1"><path class="cls-1" d="M20.8,5.1h-2a5.1,5.1,0,0,0-10.2,0H6.5L5.3,8.8l2.9-.3L4.5,16.8v2.5a2,2,0,0,0,2,2H20.8a2,2,0,0,0,2-2V7.1A2.15,2.15,0,0,0,20.8,5.1Zm-7.1-3a3.12,3.12,0,0,1,3.1,3.1H10.7A2.91,2.91,0,0,1,13.7,2.1Zm0,10.2A5.12,5.12,0,0,1,8.6,7.2h2a3.05,3.05,0,0,0,6.1.3V7.2h2A5.17,5.17,0,0,1,13.7,12.3Z"/><polygon class="cls-1" points="1.6 6.9 0 13.9 2.2 13.6 0.8 21.4 1.1 21.4 6.2 9.9 3.7 10.2 4.6 6.9 1.6 6.9"/></g></g></svg>